<svg width="89" height="51" viewBox="0 0 89 51" fill="none" xmlns="http://www.w3.org/2000/svg">
<path d="M25.026 50.0084C32.7609 49.65 39.186 45.3828 40.6993 43.0125L40.7539 50.0084H50.0243V24.8891H25.0555V33.4766L34.9159 33.4574C34.5309 35.2274 30.4392 38.4356 25.0334 38.4356C22.719 38.4345 20.4443 37.835 18.43 36.6954C16.4157 35.5557 14.7303 33.9146 13.5375 31.9314C12.3446 29.9482 11.6848 27.6902 11.622 25.3768C11.5593 23.0633 12.0959 20.7729 13.1795 18.728C14.2632 16.683 15.8573 14.953 17.8068 13.7059C19.7564 12.4589 21.9953 11.7371 24.3062 11.6106C26.6171 11.4841 28.9214 11.9573 30.9954 12.9843C33.0694 14.0112 34.8427 15.5569 36.1431 17.4714C37.2431 13.4623 39.2127 9.74479 41.9118 6.58292C38.9151 3.83245 35.2926 1.85459 31.3585 0.820886C27.4245 -0.212814 23.2976 -0.271142 19.3359 0.65096C15.3742 1.57306 11.6973 3.44775 8.624 6.11243C5.55075 8.77711 3.17398 12.1513 1.69983 15.9424C0.225688 19.7335 -0.301318 23.827 0.164524 27.8678C0.630365 31.9086 2.07499 35.7748 4.3731 39.131C6.6712 42.4872 9.7534 45.2321 13.3524 47.1276C16.9513 49.0231 20.9584 50.0119 25.026 50.0084ZM50.0921 21.563H50.5346C51.3013 18.6715 53.0114 16.1187 55.3938 14.3095C57.7761 12.5003 60.6943 11.5383 63.6856 11.576C66.6768 11.6138 69.5698 12.6492 71.9057 14.518C74.2416 16.3867 75.8867 18.9819 76.5801 21.8919C77.2735 24.8019 76.9755 27.8601 75.7333 30.5814C74.4912 33.3028 72.376 35.5315 69.7232 36.9142C67.0704 38.2968 64.032 38.7542 61.0897 38.2137C58.1475 37.6733 55.4699 36.166 53.4817 33.9309V47.9213C58.28 50.024 63.6174 50.5667 68.7407 49.4728C73.8641 48.3789 78.5144 45.7036 82.0355 41.8245C85.5565 37.9455 87.7704 33.0586 88.3647 27.8536C88.959 22.6486 87.9036 17.3884 85.3475 12.8155C82.7914 8.24265 78.8637 4.58798 74.1189 2.36739C69.374 0.146798 64.0515 -0.527562 58.9028 0.439491C53.754 1.40655 49.039 3.96617 45.4232 7.75708C41.8074 11.548 39.4735 16.3787 38.7509 21.5674L50.0921 21.563Z" fill="white"/>
</svg>
